PathFileType	4	(X/Y/Z)	D:\Share\Shared_Data\Ergonomics\Sit To Stand Pertubation\S3\Unperturbed.trc
DataRate	CameraRate	NumFrames	NumMarkers	Units	OrigDataRate	OrigDataStartFrame	OrigNumFrames	
100	100	19	18	m	100	2133	211
Frame#	Time	R_Thigh			R_ASIS			R_Pelvis			V_Sacral			L_Pelvis			L_ASIS			Clavical			R_Acromium			L_Acromium			Sternum			Torso			R_Thigh_Med			R_Thigh_Lat			R_Shank_Med			R_Shank_Lat			R_Shank			R_Heel			R_Toe			
		X1	Y1	Z1	X2	Y2	Z2	X3	Y3	Z3	X4	Y4	Z4	X5	Y5	Z5	X6	Y6	Z6	X7	Y7	Z7	X8	Y8	Z8	X9	Y9	Z9	X10	Y10	Z10	X11	Y11	Z11	X12	Y12	Z12	X13	Y13	Z13	X14	Y14	Z14	X15	Y15	Z15	X16	Y16	Z16	X17	Y17	Z17	X18	Y18	Z18	

2133	21.32	0.14507538	0.58026489	0.10608572	-0.021726051	0.64704736	0.13995815	-0.13226297	0.62855139	0.19085852	-0.23920125	0.62793915	0.004046279	-0.12721728	0.65170636	-0.20138464	-0.019999681	0.65260291	-0.14058203	-0.025044771	1.0297118	-0.0025078073	-0.073599098	1.0942253	0.16632278	-0.051797184	1.0902435	-0.15718045	-0.0085719423	0.95263983	0.0051099415	-0.018689394	1.0150553	-0.063184685	0.33058032	0.46898401	0.073704102	0.31241559	0.44996124	0.19118799	0.2577988	0.10757965	0.093666298	0.2352021	0.099213058	0.17348117	0.25602545	0.27329214	0.19673817	0.17955621	0.058186836	0.12759103	0.39752835	0.051373844	0.1344847
2134	21.33	0.14504939	0.58026843	0.10588455	-0.021479021	0.64695044	0.13991872	-0.13211751	0.62865155	0.19077565	-0.23895435	0.6281861	0.0039039443	-0.12681717	0.65185632	-0.20126476	-0.019686333	0.65254504	-0.1405885	-0.023769739	1.0294563	-0.0024264772	-0.071889168	1.0940176	0.16653653	-0.050857277	1.0901964	-0.156963	-0.0075766215	0.95234705	0.0052440639	-0.017627089	1.0148647	-0.063076511	0.33054044	0.46897675	0.07355526	0.31239224	0.44999014	0.19106139	0.25780164	0.10757845	0.093666252	0.23519908	0.099201195	0.17348489	0.25601553	0.27333505	0.19667039	0.17955405	0.058186264	0.12759573	0.39752161	0.051382076	0.13448436
2135	21.34	0.14502237	0.58027002	0.10570223	-0.021215286	0.64684717	0.13989447	-0.13195775	0.62873859	0.19070834	-0.2387202	0.62843506	0.0037882235	-0.1264479	0.65200513	-0.20112006	-0.019394888	0.65249207	-0.14059671	-0.022415628	1.0291709	-0.0023643866	-0.070041649	1.0938094	0.16674484	-0.049863506	1.0901151	-0.15675626	-0.006518508	0.95201794	0.0053508315	-0.016515991	1.0146356	-0.062997261	0.33050177	0.46897202	0.073415947	0.31237012	0.45000967	0.19094453	0.25780478	0.1075773	0.093664764	0.23520644	0.099156319	0.17349294	0.2560083	0.27337473	0.19660574	0.1795524	0.058186913	0.12759867	0.39751752	0.051389275	0.13448296
2136	21.35	0.14499712	0.58027197	0.10554092	-0.020937277	0.64673816	0.13988882	-0.13178163	0.62881403	0.19066002	-0.23849933	0.6286897	0.0037027631	-0.12611256	0.65215582	-0.2009613	-0.019126095	0.65244421	-0.1406046	-0.020977457	1.0288546	-0.0023246658	-0.068048744	1.0936041	0.16694583	-0.048808327	1.0899984	-0.15656136	-0.0053919821	0.95165149	0.005430203	-0.015351419	1.0143657	-0.062948822	0.33046603	0.46896918	0.073291122	0.31234848	0.45002182	0.19083894	0.25780829	0.10757662	0.093662704	0.23523152	0.099061829	0.1735038	0.25600104	0.27341168	0.19654596	0.17955104	0.058189022	0.12760056	0.39751553	0.051395832	0.13448114
2137	21.36	0.14497559	0.58027649	0.10540118	-0.020645161	0.64662317	0.13990501	-0.13158829	0.62888025	0.19063293	-0.23829031	0.62895514	0.0036508381	-0.1258128	0.65231171	-0.2007981	-0.018879303	0.65240112	-0.14061023	-0.019449722	1.0285085	-0.0023084381	-0.065902084	1.0934022	0.16713608	-0.047680756	1.089845	-0.15637788	-0.0041913843	0.95124664	0.0054817252	-0.014128781	1.0140526	-0.062930943	0.33043442	0.46896725	0.073184311	0.31232648	0.45002887	0.1907462	0.25781189	0.10757692	0.093661041	0.23527989	0.098901535	0.17351666	0.25599126	0.27344647	0.19649252	0.1795499	0.058193031	0.12760236	0.39751495	0.051401955	0.13447955
2138	21.37	0.1449583	0.58028503	0.10528264	-0.02033745	0.64650183	0.13994502	-0.13137735	0.62894012	0.19062836	-0.23808937	0.62923621	0.0036354921	-0.12554869	0.65247583	-0.20063618	-0.018652731	0.65236169	-0.14061166	-0.017825678	1.0281321	-0.0023144433	-0.063593529	1.0932035	0.16731168	-0.046468102	1.0896536	-0.15620573	-0.0029104187	0.95080286	0.0055050421	-0.012841404	1.0136935	-0.062940651	0.33040677	0.46896564	0.07309729	0.31230334	0.45003268	0.19066791	0.25781503	0.10757854	0.093660439	0.23535742	0.098664673	0.17353345	0.25597733	0.27347903	0.19644658	0.17954922	0.05819949	0.12760481	0.39751529	0.051407711	0.13447856
2139	21.38	0.14494472	0.58029761	0.10518459	-0.020012194	0.64637396	0.140008	-0.13114795	0.62899701	0.19064658	-0.23789137	0.62953784	0.0036594152	-0.12531933	0.65265088	-0.20047768	-0.018443901	0.65232385	-0.14060727	-0.01609799	1.0277231	-0.0023416021	-0.061116146	1.0930051	0.16746935	-0.045156746	1.0894242	-0.15604607	-0.0015416796	0.95032092	0.0055001278	-0.011479782	1.0132853	-0.062974342	0.33038181	0.46896414	0.073030518	0.31227838	0.450035	0.1906053	0.25781714	0.10758157	0.093661263	0.23546548	0.098355888	0.17355589	0.25595891	0.27350891	0.19640913	0.17954935	0.058209026	0.12760857	0.39751624	0.051412975	0.1344782
2140	21.39	0.14493336	0.58031396	0.10510632	-0.01966769	0.64623962	0.14008952	-0.1308974	0.62905499	0.19068753	-0.23769164	0.62986377	0.0037246895	-0.12512273	0.6528385	-0.20032179	-0.018249866	0.6522854	-0.14059583	-0.014259626	1.0272802	-0.0023892415	-0.058465042	1.0928035	0.16760672	-0.043731567	1.0891564	-0.15589987	-7.6442942e-05	0.94980237	0.0054671469	-0.01003185	1.0128235	-0.063029789	0.33035776	0.46896231	0.072983582	0.31225131	0.45003717	0.19055893	0.25781787	0.10758598	0.093663818	0.23559627	0.09799868	0.1735827	0.25593692	0.27353519	0.19638101	0.1795506	0.058222317	0.12761421	0.39751761	0.051417309	0.13447835
2141	21.4	0.14492213	0.58033368	0.10504726	-0.019301788	0.64609741	0.14018236	-0.13062122	0.62911823	0.1907509	-0.23748668	0.63021783	0.0038324606	-0.12495514	0.65303961	-0.20016628	-0.018067223	0.65224347	-0.14057681	-0.012303484	1.0268031	-0.0024548085	-0.055638035	1.092594	0.16772174	-0.04217609	1.08885	-0.15576723	0.001495309	0.94924902	0.0054064579	-0.0084839239	1.0123027	-0.063107094	0.33033237	0.46895999	0.072955162	0.31222144	0.45004019	0.19052873	0.25781668	0.10759162	0.093668449	0.23573752	0.097620064	0.17360854	0.25591281	0.27355759	0.19636285	0.17955316	0.058240234	0.12762274	0.39751953	0.051420334	0.13447862
2142	21.41	0.14490854	0.58035632	0.10500689	-0.018910004	0.64594403	0.14027914	-0.13031433	0.62919098	0.19083585	-0.23727327	0.63060437	0.0039823582	-0.12481067	0.65325507	-0.20000935	-0.017891823	0.65219531	-0.14055051	-0.010223341	1.0262943	-0.0025361176	-0.052636253	1.0923719	0.16781238	-0.040474697	1.088505	-0.15564951	0.0031840217	0.94866309	0.005318737	-0.0068220811	1.0117186	-0.063209042	0.33030368	0.46895767	0.072943596	0.31218784	0.45004449	0.19051434	0.25781274	0.10759834	0.093675507	0.23587849	0.097241699	0.17362489	0.25588766	0.27357584	0.19635493	0.17955708	0.058263683	0.12763521	0.3975217	0.051422199	0.13447881
2143	21.42	0.14488985	0.58038165	0.10498479	-0.018484434	0.64577441	0.14037474	-0.1299734	0.6292774	0.19094118	-0.2370479	0.63102783	0.0041716828	-0.12468148	0.6534859	-0.19985114	-0.017718481	0.65213721	-0.14051793	-0.00801577	1.0257555	-0.0026360974	-0.049463394	1.0921335	0.16787689	-0.03861517	1.0881221	-0.15555133	0.0049996662	0.94804749	0.0052051506	-0.0050328913	1.01107	-0.063340118	0.33026996	0.46895657	0.072947754	0.31214911	0.45005023	0.19051521	0.25780487	0.10760593	0.09368541	0.23600856	0.096891884	0.17362718	0.25586156	0.27359033	0.19635738	0.17956216	0.058292892	0.12765229	0.39752377	0.051423672	0.13447888
2144	21.43	0.14486366	0.5804093	0.10498094	-0.018015276	0.64558435	0.14046652	-0.12959776	0.62938104	0.19106534	-0.23680647	0.63149249	0.0043948898	-0.12455832	0.65373395	-0.19969304	-0.017541039	0.65206531	-0.14048047	-0.0056777172	1.025187	-0.0027608416	-0.046124123	1.0918746	0.167914	-0.036589062	1.0877026	-0.15547935	0.0069516816	0.94740485	0.0050676637	-0.0031031809	1.0103633	-0.063502445	0.33023035	0.46895813	0.072967339	0.31210358	0.45005734	0.19053101	0.25779178	0.10761427	0.093698387	0.23611743	0.096603218	0.17361945	0.2558336	0.27360147	0.19636984	0.17956781	0.0583265	0.12767327	0.39752499	0.051425854	0.13447928
2145	21.44	0.14482809	0.58043829	0.10499572	-0.017493916	0.6453714	0.14055351	-0.12918871	0.62950525	0.19120639	-0.23654462	0.6320025	0.0046439047	-0.12443097	0.65400092	-0.19953627	-0.017352715	0.65197595	-0.14043954	-0.0032012279	1.024587	-0.002913933	-0.042623199	1.0915916	0.16792178	-0.034390465	1.0872485	-0.15543919	0.009047801	0.94673737	0.0049093633	-0.0010197036	1.0096152	-0.063691467	0.33018405	0.46896362	0.073002716	0.31204935	0.45006561	0.19056136	0.25777216	0.10762324	0.093714333	0.23619852	0.096394081	0.17360751	0.25580191	0.2736098	0.19639203	0.17957326	0.058360802	0.12769546	0.39752469	0.051429893	0.13448064
2146	21.45	0.14478214	0.58046765	0.10502987	-0.01691568	0.64513556	0.14063428	-0.1287466	0.6296535	0.1913613	-0.23625769	0.63256146	0.0049093375	-0.12428862	0.65428748	-0.19938007	-0.017146347	0.65186621	-0.14039627	-0.00057267338	1.0239533	-0.0030949168	-0.038964798	1.0912815	0.16789758	-0.032015278	1.0867626	-0.15543398	0.011290585	0.94604504	0.0047342749	0.0012301222	1.0088456	-0.063897274	0.33013043	0.46897354	0.073054703	0.31198438	0.45007452	0.19060608	0.25774503	0.10763274	0.09373291	0.23624776	0.096269341	0.17359657	0.25576433	0.2736153	0.19642365	0.17957777	0.058388947	0.12771346	0.39752213	0.051436573	0.1344836
2147	21.46	0.14472575	0.58049548	0.10508405	-0.016282078	0.64487787	0.14070566	-0.12826918	0.62982953	0.19152647	-0.23594055	0.63317212	0.0051819611	-0.1241207	0.65459296	-0.19922276	-0.016914362	0.65173486	-0.14035167	0.0022225521	1.0232838	-0.0032995663	-0.035150688	1.0909408	0.16783984	-0.029459679	1.0862472	-0.15546407	0.013674161	0.94532507	0.0045462561	0.0036573353	1.0080683	-0.064110512	0.33006924	0.46898813	0.073124237	0.31190665	0.45008337	0.19066512	0.25771036	0.10764266	0.093753693	0.23626065	0.096232277	0.17359395	0.25571867	0.27361771	0.19646449	0.17958098	0.058400177	0.12771838	0.39751678	0.051445858	0.13448842
2148	21.47	0.14465976	0.58051984	0.10515794	-0.015603645	0.64459784	0.1407632	-0.12775202	0.63003644	0.19169942	-0.23558806	0.63383612	0.0054538546	-0.12391783	0.6549165	-0.19906488	-0.01664909	0.65158252	-0.14030663	0.005195569	1.0225773	-0.0035190394	-0.031178049	1.0905668	0.16775032	-0.026717113	1.0857048	-0.15552664	0.016184259	0.94457117	0.004347785	0.0062726202	1.0072868	-0.064325577	0.33000061	0.46900739	0.073212326	0.31181503	0.45009119	0.1907384	0.25766901	0.10765276	0.093776474	0.23623181	0.096285591	0.17360527	0.25566319	0.2736163	0.19651418	0.17958269	0.05837941	0.12769778	0.39750824	0.051456921	0.13449513
2149	21.48	0.14458554	0.58053912	0.1052493	-0.014903729	0.64429248	0.14080042	-0.12719062	0.63027698	0.19187898	-0.23519524	0.63455505	0.0057194715	-0.12367244	0.65525793	-0.1989106	-0.016343594	0.65141113	-0.14026175	0.0083534918	1.0218331	-0.0037408793	-0.027039099	1.0901565	0.16763498	-0.023777069	1.0851355	-0.15561617	0.01880304	0.9437746	0.0041397924	0.0090881948	1.0064965	-0.064540009	0.32992487	0.46903113	0.073319412	0.31170993	0.45009686	0.19082587	0.25762277	0.10766272	0.093801163	0.23615813	0.09642897	0.17363448	0.25559644	0.2736102	0.19657225	0.17958292	0.058307945	0.12763612	0.39749612	0.051468563	0.13450366
2150	21.49	0.14450504	0.58055151	0.10535435	-0.014221171	0.64395477	0.14080714	-0.12658221	0.63055219	0.19206421	-0.23475777	0.63533026	0.005976758	-0.12337844	0.65561725	-0.19876476	-0.015992476	0.65122308	-0.14021753	0.011701663	1.0210524	-0.003951103	-0.022722683	1.0897078	0.16750241	-0.020626329	1.0845366	-0.15572655	0.021518621	0.94292603	0.0039225347	0.012116956	1.0056896	-0.064752663	0.32984253	0.46905887	0.073444794	0.31159335	0.4500993	0.19092731	0.25757404	0.10767235	0.093827881	0.23604326	0.096655647	0.17368669	0.2555174	0.2735986	0.19663814	0.17958182	0.058165577	0.12751657	0.39748019	0.051479259	0.13451392
2151	21.5	0.14442081	0.58055597	0.10546848	-0.013608891	0.64357391	0.14077066	-0.12592606	0.63086041	0.19225299	-0.23427232	0.63616418	0.0062281675	-0.12303042	0.65599365	-0.19862975	-0.015592178	0.65102026	-0.14017418	0.015245333	1.0202382	-0.0041346469	-0.018215555	1.0892168	0.1673607	-0.017249809	1.0839031	-0.15585225	0.024336477	0.94201794	0.0036973834	0.015369731	1.0048557	-0.064962425	0.32975424	0.46908981	0.073586555	0.31146786	0.45009766	0.19104259	0.25752457	0.10768156	0.093856979	0.23589925	0.096946327	0.17376176	0.25542563	0.27358136	0.1967113	0.17957918	0.057935329	0.1273249	0.3974603	0.051487099	0.13452544
